<svg width="1482" height="1800" viewBox="0 0 1482 1800" fill="none" xmlns="http://www.w3.org/2000/svg">
<path d="M215.294 1727.05H95.4582L72.6758 1795.44H0L123.481 1463.53H186.816L310.981 1795.44H238.305L215.294 1727.05ZM113.912 1671.66H196.841L155.148 1547.42L113.912 1671.66ZM412.363 1488.16V1548.79H454.509V1597.12H412.363V1720.21C412.363 1729.33 414.108 1735.87 417.603 1739.82C421.097 1743.77 427.779 1745.74 437.652 1745.74C444.94 1745.74 451.397 1745.21 457.015 1744.15V1794.07C444.105 1798.02 430.816 1800 417.145 1800C370.977 1800 347.433 1776.67 346.521 1730.01V1597.12H310.525V1548.79H346.521V1488.16H412.363ZM474.101 1669.84C474.101 1645.37 478.814 1623.56 488.23 1604.41C497.645 1585.26 511.162 1570.45 528.78 1559.96C546.553 1549.47 567.134 1544.23 590.524 1544.23C623.782 1544.23 650.895 1554.41 671.854 1574.78C692.967 1595.14 704.739 1622.8 707.17 1657.75L707.623 1674.62C707.623 1712.47 697.068 1742.86 675.955 1765.8C654.842 1788.6 626.516 1800 590.976 1800C555.437 1800 527.035 1788.6 505.773 1765.8C484.66 1743.01 474.101 1712.01 474.101 1672.8V1669.84ZM539.946 1674.62C539.946 1698.03 544.35 1715.96 553.16 1728.42C561.969 1740.73 574.576 1746.89 590.976 1746.89C606.924 1746.89 619.377 1740.81 628.34 1728.65C637.304 1716.34 641.783 1696.73 641.783 1669.84C641.783 1646.89 637.304 1629.11 628.34 1616.49C619.377 1603.88 606.775 1597.57 590.524 1597.57C574.422 1597.57 561.969 1603.88 553.16 1616.49C544.35 1628.95 539.946 1648.33 539.946 1674.62ZM809.917 1548.79L811.965 1576.37C829.434 1554.94 853.052 1544.23 882.821 1544.23C914.562 1544.23 936.361 1556.77 948.208 1581.84C965.523 1556.77 990.201 1544.23 1022.25 1544.23C1048.98 1544.23 1068.88 1552.06 1081.94 1567.71C1095 1583.21 1101.53 1606.62 1101.53 1637.92V1795.44H1035.46V1638.15C1035.46 1624.17 1032.73 1613.99 1027.26 1607.61C1021.79 1601.07 1012.15 1597.8 998.328 1597.8C978.583 1597.8 964.912 1607.22 957.32 1626.07L957.549 1795.44H891.704V1638.38C891.704 1624.09 888.895 1613.76 883.278 1607.38C877.655 1600.99 868.086 1597.8 854.569 1597.8C835.887 1597.8 822.37 1605.55 814.018 1621.05V1795.44H748.178V1548.79H809.917ZM1221.82 1795.44H1155.75V1548.79H1221.82V1795.44ZM1151.88 1484.96C1151.88 1475.08 1155.15 1466.96 1161.68 1460.57C1168.36 1454.19 1177.4 1451 1188.79 1451C1200.03 1451 1208.99 1454.19 1215.67 1460.57C1222.35 1466.96 1225.7 1475.08 1225.7 1484.96C1225.7 1495 1222.28 1503.2 1215.44 1509.59C1208.76 1515.97 1199.88 1519.16 1188.79 1519.16C1177.7 1519.16 1168.74 1515.97 1161.9 1509.59C1155.22 1503.2 1151.88 1495 1151.88 1484.96ZM1378.8 1746.89C1390.95 1746.89 1400.82 1743.54 1408.41 1736.85C1416.01 1730.17 1419.95 1721.28 1420.26 1710.18H1482C1481.85 1726.9 1477.29 1742.25 1468.33 1756.23C1459.37 1770.06 1447.07 1780.85 1431.42 1788.6C1415.93 1796.2 1398.77 1800 1379.93 1800C1344.7 1800 1316.9 1788.83 1296.55 1766.49C1276.2 1744 1266.02 1712.99 1266.02 1673.48V1669.15C1266.02 1631.16 1276.12 1600.84 1296.32 1578.2C1316.53 1555.56 1344.24 1544.23 1379.48 1544.23C1410.31 1544.23 1434.99 1553.04 1453.52 1570.67C1472.2 1588.15 1481.7 1611.48 1482 1640.66H1420.26C1419.95 1627.89 1416.01 1617.56 1408.41 1609.65C1400.82 1601.6 1390.79 1597.57 1378.34 1597.57C1363 1597.57 1351.38 1603.2 1343.48 1614.44C1335.73 1625.54 1331.86 1643.62 1331.86 1668.7V1675.53C1331.86 1700.92 1335.73 1719.15 1343.48 1730.24C1351.23 1741.34 1363 1746.89 1378.8 1746.89Z" fill="white"/>
<path fill-rule="evenodd" clip-rule="evenodd" d="M51 1349L464.948 210.406C517.475 77.4692 615.402 2.22008 745.59 0.0483546V0C746.562 0 747.529 0.00401925 748.501 0.0120515C749.468 0.00401925 750.435 0 751.407 0V0.0483546C881.595 2.22008 979.522 77.4692 1032.05 210.406L1446 1349L1189.67 1259.5L836.055 286.868C814.532 233.069 789.687 213.704 748.501 212.85C707.31 213.704 682.465 233.069 660.943 286.868L307.331 1259.5L51 1349ZM928.613 915.449C928.613 1014.9 849.059 1095.52 750.926 1095.52C652.793 1095.52 573.239 1014.9 573.239 915.449C573.239 815.994 652.793 735.37 750.926 735.37C849.059 735.37 928.613 815.994 928.613 915.449Z" fill="url(#paint0_linear)"/>
<defs>
<linearGradient id="paint0_linear" x1="51" y1="0" x2="51" y2="1349" gradientUnits="userSpaceOnUse">
<stop stop-color="#42C1FD"/>
<stop offset="1" stop-color="#1F8EFA"/>
</linearGradient>
</defs>
</svg>
