<?xml version="1.0" encoding="utf-8"?>
<!-- Generator: Adobe Illustrator 25.0.1, SVG Export Plug-In . SVG Version: 6.00 Build 0)  -->
<svg version="1.0" id="katman_1" xmlns="http://www.w3.org/2000/svg" xmlns:xlink="http://www.w3.org/1999/xlink" x="0px" y="0px"
	 viewBox="0 0 560 400" style="enable-background:new 0 0 560 400;" xml:space="preserve">
<style type="text/css">
	.st0{fill:#264176;}
	.st1{fill:none;}
	.st2{fill:#FF6901;}
</style>
<path class="st0" d="M266.7,302.8c-4.1-2.8-4-5.5-1.3-11.5c4.3-10,26.7-37.3,36.9-54.8c0.6-0.8,1.1-1.1,2.3-0.6
	c1.7,0.8,4.1,2.8,5.6,4.7c1.3,2.1,1.3,4.3-2.1,10.5c-5.6,10-23.3,31.2-28.6,43.1c12-1.7,24.8-3,28.4-3c0.8,0,0.9,0.4,0.6,0.9
	c-0.8,2.4-1.5,3.8-5.5,5.1c-11.1,3.4-23.5,6.8-29.4,7.7C270.5,305.6,269.5,304.8,266.7,302.8z"/>
<path class="st0" d="M314.1,299.6c-4.3-4-4.3-6,2.6-16.9c4-6,8.8-12.6,10.9-14.9c0.4-0.6,0.8-0.8,1.5-0.6c2.4,0,8.3,0.6,8.3,4.1
	c0,1.9-1.9,5.3-5.3,9.8c-5.3,7.3-8.5,12.4-9.6,15.8c4.5-0.4,10.4-3,18.6-13.9l0.4-0.4c0.8-0.9,0.9-0.9,1.1-0.6l0.4,0.4
	c0.8,0.8,0.6,1.1,0.2,1.9l-0.4,0.6c-4.3,7.2-15.1,18.6-22.2,18.4C318.1,302.6,316.8,301.6,314.1,299.6z M335.6,258
	c1.5-3,3.6-6,5.5-8.1c1.5-1.7,2.3-2.3,3-1.9c2.1,0.6,4.3,1.9,5.5,2.8c0.9,0.8,1.3,1.3,0.6,2.1c-2.4,2.4-5.3,5.1-6.4,6.2
	c-1.5,1.7-2.8,1.9-4.3,1.9c-1.3,0-3.4-0.6-4-1.1C335.2,259.3,335.2,258.7,335.6,258z"/>
<path class="st0" d="M346.9,297.5c-1.5,3-2.3,5.3-4.3,5.3c-2.3,0-7.3-2.4-7.3-7c0-1.9,0.2-4.3,6-13.2c11.5-17.5,23-34.8,29.4-44.2
	c1.7-2.6,2.4-3.2,3.6-3.2c0.6,0,1.9,0.4,2.8,0.6c3.4,0.9,5.6,3.6,1.3,12.6c-1.7,3.2-6.6,10.9-12.6,19.8c1.5-0.2,2.8-0.2,4-0.2
	c3.2,0,5.3,0.9,6.6,2.6c1.5,1.7,2.4,4.9,1.7,9.4c5.8-0.9,9.6-2.6,14.3-7.2l0.4-0.4c0.8-0.8,1.1-0.6,1.3-0.2l0.2,0.4
	c0.4,0.6,0.4,1.1-0.2,1.7l-0.4,0.6c-4.7,5.8-10.4,7.7-16.4,8.7c-0.2,0.4-0.4,0.8-0.4,1.1c-3,8.1-12.2,17.3-23.7,17.1
	C350.1,301.4,348.8,299.9,346.9,297.5z M357.6,290.7c3.2-1.5,6-3.8,8.1-6.2c-3.6,0.4-7.2,1.1-10.2,2.6c-2.6,1.3-4.7,3.2-6.2,6
	C352.4,292.8,355.2,291.8,357.6,290.7z M368.7,280.7c2.1-3.2,3.4-6.2,3.6-8.5c-4,0.6-11.9,3.8-17.7,10.9
	C358.8,281.3,363.3,280.9,368.7,280.7z"/>
<path class="st0" d="M387.2,301.8c-2.8-1.5-5.6-4.5-7.2-7.7c-1.3-3.2,0-9,4-14.5c5.3-7,14.7-12.6,21.1-12.6c2.6,0,4.5,0.9,7.2,4.9
	c2.1,1.9,3.4,3.6,3.2,5.6c0,2.3-2.1,5.3-8.1,9c-3.6,2.1-9,4.5-15.4,6.4c-0.2,1.3-0.4,2.4-0.2,3.6c1.1,0.4,2.6,0.6,4,0.6
	c3.4,0,7.5-1.3,10.2-3.2c1.5-0.9,1.9-1.3,2.1-1.3s0.4,0.4,0.2,0.8c0,0.6-0.2,1.5-0.4,2.4c-0.4,1.1-0.9,1.9-2.3,2.8
	c-3.6,2.6-7.9,4.9-12.8,4.9C390.6,303.1,388.7,302.8,387.2,301.8z M409.8,274.5c-5.8,1.3-12.8,7.3-16,13.9c4.1-1.7,8.3-3.8,10.5-5.6
	C408.6,279.6,410,277.2,409.8,274.5z"/>
<path class="st0" d="M415.4,300.5c-2.3-1.5-3.2-2.8-3-4.9c0-3.2,2.1-6.8,6.6-12.8c5.8-7.7,9.8-13.9,11.1-16.2
	c0.4-0.6,0.8-0.8,1.9-0.6c1.7,0.2,4,0.8,5.1,1.3c1.3,0.8,2.3,2.1,1.1,6.2c5.3-4.5,10-7.3,15.2-10.4c1.7-0.9,2.6-1.3,3-1.3
	c0.8,0,0.9,1.5,0.9,2.4c0,0.9-0.8,1.5-1.9,2.4c-8.8,6.4-18.1,14.9-29,29.7c-4.1,5.6-4.7,6.2-6.2,6.2
	C419,302.6,417.5,302,415.4,300.5z"/>
<path class="st0" d="M447,297.1c-1.5-2.1-0.9-7.2,3.6-14.1c1.7-2.6,4.3-6.4,7.3-10.4c-2.6,0.2-3.8-0.4-4.1-1.3
	c-0.4-0.8-0.6-2.6-0.6-3.4c0-0.8,0.6-0.9,1.7-0.9c2.4-0.2,5.1-0.6,7.7-0.8c4.1-5.8,8.3-11.7,10.4-15.6c1.3-2.4,1.7-3,2.3-3
	c0.8,0,2.4,0.6,4.7,1.7c2.3,1.1,3.8,2.4,3.8,4.5c0,2.3-2.1,5.6-5.5,10.9c3-0.2,5.3-0.4,7-0.4c1.3,0,1.5,0.2,1.5,0.6
	c0,0.6-0.2,1.7-0.8,2.3c-0.4,0.4-0.9,0.8-2.4,1.1c-2.3,0.6-5.5,1.3-9,1.9c-5.5,7.9-13.2,19.4-16.2,25.8c0.6,0.2,1.1,0.2,1.7,0.2
	c3.2,0,7.7-2.1,11.3-5.3c0.2-0.2,0.6-0.2,0.6,0c0,0.4,0.2,1.1,0.2,1.5s-0.2,0.9-0.8,1.9c-2.6,3.6-8.8,9-14.9,9
	C452.7,303.3,449.5,300.7,447,297.1z"/>
<path class="st0" d="M455.9,326.7c-2.3-3.4-2.3-9,3-13.7c6.4-5.6,18.1-8.8,30.1-10.9c2.3-3.4,4.7-7.2,7.3-11.5
	c-4,4.3-7.3,6.8-8.5,7.7c-2.6,1.7-4.7,2.3-5.8,2.3c-1.9,0-3.8-0.8-6-3.2c-2.1-2.3-1.3-5.1,4.3-14.1c4.5-7.3,6.8-12.4,7.3-15.1
	c0.2-1.1,0.8-1.5,1.5-1.5c1.1,0,2.6,0.4,4.1,0.9c4.1,1.7,5.1,4.5,2.3,10.7c-1.7,3.8-4,8.3-5.5,11.9c4.3-2.4,9.6-7.5,16.8-17.3
	c2.3-3.2,2.8-3.8,3.8-3.8s2.3,0.8,4.1,1.3c3.2,1.1,4.3,3,2.8,5.6c-3.2,6-8.7,15.1-14.7,24.1c5.8-0.6,11.3-0.8,15.1-0.8
	c0.8,0,1.1,0.4,0.9,0.8c-0.6,0.9-0.9,1.3-1.5,2.1c-0.6,0.9-1.7,1.1-3,1.3c-5.3,0.4-10.2,0.9-14.9,1.5
	c-11.9,16.8-24.1,25.8-34.8,25.8C460.6,331.2,457.6,329.3,455.9,326.7z M461.2,324c6.8,0.2,14.3-4.7,23.2-15.8
	c-7.7,2.1-13.9,4.7-18.1,7.9C463.2,318.6,461,321.4,461.2,324z"/>
<path class="st1" d="M464.2,227.1h-2.3v3h2.3c1.1,0,1.9-0.6,1.9-1.5C466.1,227.7,465.3,227.1,464.2,227.1z"/>
<path class="st1" d="M355.6,212.4c0.4,0.4,0.8,0.9,0.9,1.3C356.3,213.3,355.9,212.8,355.6,212.4z"/>
<path class="st1" d="M145.8,197.3v0.6c0,10.2,8.5,16.2,20.5,16.2c17.7,0,29.6-9.6,29.6-23.3v-7c-6.4-3-14.9-4.9-24.1-4.9
	C155.6,178.9,145.8,185.3,145.8,197.3z"/>
<path class="st1" d="M463.8,222.4c-4.3,0-7.7,3.6-7.7,7.9c0,0.2,0,0.2,0,0.4c0,4.3,3.6,7.7,7.9,7.5c4.3,0,7.7-3.6,7.5-7.9v-0.2
	C471.5,225.8,468.1,222.4,463.8,222.4z M467.4,233.3c0.2,0,0.2,0.4,0.2,0.6c0,0.6-0.4,0.9-0.8,0.9c-0.2,0-0.6-0.2-0.8-0.4l-2.3-2.8
	h-1.9v2.4c0,0.6-0.4,0.9-0.9,0.9c-0.4,0-0.8-0.4-0.8-0.9v-7.3c0-0.6,0.4-0.9,0.9-0.9h3.2c1.9,0,3.4,0.9,3.4,2.8
	c0.2,1.1-0.8,2.3-2.1,2.6L467.4,233.3z"/>
<path class="st0" d="M371.7,188.5c-7-5.8-17.5-4.9-23.3,2.1l-5.6,6.6l12.8,15.2c0.4,0.4,0.8,0.9,0.9,1.3l0,0c4,6,3.8,13.9-0.9,19.8
	l18.1-21.6C379.6,204.9,378.7,194.3,371.7,188.5z"/>
<path class="st0" d="M440.6,106c-7-5.8-17.5-4.9-23.3,2.1L386.4,145l-30.5-36.7c4.9,6.2,4.9,15.1-0.2,21.1l-12.8,15.2l74.4,89
	c5.8,7,16.4,7.9,23.3,2.1c7-5.8,7.9-16.4,2.1-23.3l-34.6-41.6l34.6-41.4C448.5,122.4,447.6,111.9,440.6,106z"/>
<path class="st2" d="M353.5,106c-7-5.8-17.5-4.9-23.3,2.1L299.3,145l-30.9-36.9c-5.8-7-16.4-7.9-23.3-2.1c-7,5.8-7.9,16.4-2.1,23.3
	l34.6,41.6L243,212.4c-5.8,7-4.9,17.5,2.1,23.3c7,5.8,17.5,4.9,23.3-2.1l87.2-104.3C361.4,122.4,360.4,111.9,353.5,106z"/>
<path class="st2" d="M81.1,102.5c-10.5-0.2-19.2,8.1-19.4,18.6c0,0.2,0,0.4,0,0.6v113.1c0,8.8-3.8,12.4-9.2,12.4h-0.2
	c-7.9,0-14.7,6-14.7,15.1c0.2,10.5,9,15.4,21.3,15.4h0.6c24.8,0,40.3-13.4,40.3-42.7V121.7C99.9,111.3,91.6,102.7,81.1,102.5z"/>
<path class="st2" d="M172.2,102.7c-17.5,0-30.5,2.4-42.4,7c-6,2.3-10.2,8.1-10.2,14.7c0,8.8,7,15.4,15.6,15.4c1.9,0,3.8-0.4,5.5-0.9
	c7.2-2.3,15.6-3.8,26-3.8c19,0,28.6,8.7,28.6,24.3v2.3c-9.4-3.2-19.2-5.5-32.6-5.5c-31.4,0-53.5,13.4-53.8,42.4v0.6
	c0,26.4,20.7,40.7,45.7,40.7c18.4,0,31.1-6.8,40.3-16.9v0.2c0,7.9,7.2,15.6,18.1,15.6c10.2,0,18.4-7.9,18.4-18.1v-60.6
	c0-17.9-4.3-32.4-14.3-42.4C207.8,108.1,192.7,102.7,172.2,102.7z M195.9,190.8c0,13.7-11.9,23.3-29.6,23.3c-12,0-20.5-6-20.5-16.2
	v-0.6c0-12,9.8-18.4,26-18.4c9.2,0,17.7,1.9,24.1,4.9C195.9,183.8,195.9,190.8,195.9,190.8z"/>
<path class="st2" d="M355.6,212.4l-12.8-15.2l-5.5-6.6c-5.8-7.2-16.4-8.1-23.3-2.1c-7,5.8-7.9,16.4-2.1,23.3l18.3,21.8
	c5.8,7,16.4,7.9,23.3,2.1c6.6-5.5,7.7-15.1,3.2-22l0,0C356.3,213.3,355.9,212.8,355.6,212.4z"/>
<path class="st0" d="M463.8,221.4c-4.9,0-8.8,4-8.8,8.8c0,4.9,3.8,8.8,8.7,9c4.9,0,8.8-3.8,9-8.7c0-0.2,0-0.2,0-0.4
	C472.6,225.4,468.7,221.4,463.8,221.4z M471.5,230.3c0.2,4.3-3.2,7.9-7.5,7.9c-4.3,0.2-7.9-3.2-7.9-7.5c0-0.2,0-0.2,0-0.4
	c0-4.3,3.4-7.9,7.7-7.9C468.1,222.4,471.5,225.8,471.5,230.3L471.5,230.3z"/>
<path class="st0" d="M467.7,228.6c0-1.9-1.5-2.8-3.4-2.8h-3.2c-0.6,0-0.9,0.4-0.9,0.9v7.3c0,0.6,0.4,0.9,0.8,0.9
	c0.6,0,0.9-0.4,0.9-0.9v-2.4h1.9l2.3,2.8c0.2,0.2,0.6,0.4,0.8,0.4c0.4,0,0.8-0.4,0.8-0.9c0-0.2,0-0.6-0.2-0.6l-1.7-2.1
	C467,230.9,467.9,229.7,467.7,228.6z M464.2,230.1h-2.3v-3h2.3c1.1,0,1.9,0.6,1.9,1.5C466.1,229.5,465.3,230.1,464.2,230.1z"/>
</svg>
