<svg width="400" height="400" viewBox="0 0 400 400" fill="none" xmlns="http://www.w3.org/2000/svg">
<rect width="400" height="400" fill="white"/>
<path fill-rule="evenodd" clip-rule="evenodd" d="M166.924 227.711L167.202 227.066C207.66 266.713 253.352 224.299 253.352 224.299C231.73 178.884 200.987 176.15 189.058 176.996C189.058 176.996 217.49 164.301 249.334 193.06C257.801 201.345 266.164 212.743 273.616 228.4C273.616 228.4 216.121 281.785 166.924 227.706V227.711ZM163.598 127.485C163.466 126.353 163.56 125.206 163.874 124.11C164.188 123.014 164.716 121.99 165.428 121.097C166.14 120.204 167.022 119.459 168.023 118.906C169.024 118.353 170.126 118.001 171.264 117.872C173.564 117.589 175.883 118.226 177.713 119.641C179.543 121.056 180.735 123.136 181.028 125.424C181.16 126.556 181.067 127.704 180.753 128.8C180.439 129.897 179.911 130.921 179.199 131.815C178.487 132.708 177.605 133.453 176.604 134.007C175.602 134.561 174.501 134.913 173.363 135.043C171.061 135.325 168.742 134.689 166.911 133.272C165.081 131.855 163.89 129.775 163.598 127.485V127.485ZM372.038 158.008C374.748 204.73 335.576 223.745 304.517 219.123C278.697 215.282 265.111 193.245 260.979 178.895C260.554 177.593 260.216 176.237 260.014 174.815C259.959 174.49 259.899 174.164 259.85 173.828C254.611 140.734 231.615 121.518 225.548 117.465C203.942 104.32 169.874 95.9866 141.181 116.489C139.616 117.606 138.144 118.735 136.71 119.874V119.852C131.792 124.019 123.577 127.963 101.093 124.068C101.093 124.068 116.086 137.663 111.888 151.454V151.46C105.564 166.563 105.52 181.456 106.627 193.728C117.465 263.567 182.942 312.768 254.955 304.24C328.407 295.548 380.826 230.077 372.038 158.008" fill="#0F37C3"/>
<path fill-rule="evenodd" clip-rule="evenodd" d="M289.439 343.34C286.168 331.692 282.16 329.549 277.734 330.021C275.209 330.748 272.669 331.41 270.112 332.028L269.976 332.061H269.992C261.097 334.198 252.061 335.701 242.951 336.558C188.28 341.663 137.147 323.749 105.39 290.476C105.386 290.456 105.381 290.436 105.374 290.416C101.374 286.226 97.6651 281.769 94.2741 277.076C93.8216 276.446 93.3582 275.828 92.922 275.193C92.7421 274.938 92.5731 274.672 92.3987 274.423C89.4688 270.108 86.8298 265.604 84.499 260.941C84.4608 260.957 84.4172 260.968 84.3736 260.995C80.2642 253.044 77.0219 244.678 74.702 236.039L74.6966 236.028C71.0111 225.639 69.6864 212.027 69.3102 200.678C68.8475 194.037 68.9149 187.37 69.5119 180.74V180.686C69.526 180.462 69.5496 180.24 69.5828 180.018C75.1818 121.882 121.195 73.3799 182.452 66.1264C253.086 57.7715 317.232 107.396 325.726 176.986C327.198 189.084 326.882 200.976 325.001 212.423C332.999 210.85 341.111 207.524 347.98 202.104C354.07 196.408 379.628 173.899 355.842 113.961C323.169 52.6663 254.514 14.489 180.587 23.2453C84.9678 34.5623 16.7709 120.107 28.2634 214.322C28.4106 215.521 28.5905 216.709 28.7649 217.903C28.8849 219.107 28.9939 220.306 29.1411 221.505C34.6311 266.556 57.3761 305.412 90.0544 332.467C100.32 340.415 137.769 369.034 195.547 376.135H195.574C226.533 379.858 257.912 377.997 288.206 370.639C293.707 368.958 295.686 366.663 294.531 361.498C292.928 354.407 294.536 361.498 289.439 343.34Z" fill="#0F37C3"/>
</svg>
