<?xml version="1.0" encoding="UTF-8" standalone="no"?>
<!-- Created with Inkscape (http://www.inkscape.org/) -->

<svg
   xmlns:svg="http://www.w3.org/2000/svg"
   xmlns="http://www.w3.org/2000/svg"
   xmlns:xlink="http://www.w3.org/1999/xlink"
   version="1.0"
   width="123"
   height="124"
   viewBox="0 -410 126.28 117.8"
   id="svg2">
  <defs
     id="defs13">
    <linearGradient
       id="linearGradient3740">
      <stop
         id="stop3742"
         style="stop-color:#ffffff;stop-opacity:0"
         offset="0" />
      <stop
         id="stop3744"
         style="stop-color:#ffffff;stop-opacity:0"
         offset="0.74273074" />
      <stop
         id="stop3746"
         style="stop-color:#ffffff;stop-opacity:1"
         offset="1" />
    </linearGradient>
    <linearGradient
       id="linearGradient3679">
      <stop
         id="stop3681"
         style="stop-color:#ffffff;stop-opacity:0"
         offset="0" />
      <stop
         id="stop3689"
         style="stop-color:#ffffff;stop-opacity:0"
         offset="0.72379696" />
      <stop
         id="stop3683"
         style="stop-color:#ffffff;stop-opacity:1"
         offset="1" />
    </linearGradient>
    <linearGradient
       id="linearGradient3638">
      <stop
         id="stop3640"
         style="stop-color:#51cdf3;stop-opacity:1"
         offset="0" />
      <stop
         id="stop3642"
         style="stop-color:#1864d0;stop-opacity:1"
         offset="1" />
    </linearGradient>
    <filter
       color-interpolation-filters="sRGB"
       id="filter3716">
      <feGaussianBlur
         stdDeviation="1.112501"
         id="feGaussianBlur3718" />
    </filter>
    <radialGradient
       cx="62.171875"
       cy="22.953125"
       r="5.265625"
       fx="62.171875"
       fy="22.953125"
       id="radialGradient3791"
       xlink:href="#linearGradient3679"
       gradientUnits="userSpaceOnUse"
       gradientTransform="matrix(3.5785679,0,0,3.2837391,-160.3144,-49.122072)" />
    <radialGradient
       cx="23.571064"
       cy="44.746948"
       r="27.078211"
       fx="23.571064"
       fy="44.746948"
       id="radialGradient3798"
       xlink:href="#linearGradient3740"
       gradientUnits="userSpaceOnUse"
       gradientTransform="matrix(-0.96916097,0,0,0.54624332,130.66979,-419.36856)" />
    <radialGradient
       cx="23.571064"
       cy="44.746948"
       r="27.078211"
       fx="23.571064"
       fy="44.746948"
       id="radialGradient3801"
       xlink:href="#linearGradient3740"
       gradientUnits="userSpaceOnUse"
       gradientTransform="matrix(0.96916097,0,0,0.54624332,-4.3897965,-419.36856)" />
    <linearGradient
       x1="7.9998298"
       y1="120.625"
       x2="7.9998298"
       y2="44.036446"
       id="linearGradient3806"
       xlink:href="#linearGradient3638"
       gradientUnits="userSpaceOnUse"
       gradientTransform="matrix(1.0266667,0,0,1.0266667,-0.6736771,-416.32542)" />
  </defs>
  <path
     d="m 17.826998,-410.75437 c -1.513367,4e-5 -3.750951,0.32628 -5.884648,0.82947 -1.06685,0.25159 -2.1195346,0.5536 -3.0042682,0.89091 -0.8847329,0.33732 -1.6052271,0.67061 -2.1680279,1.22885 -0.481669,0.47777 -0.7176808,1.04432 -0.9291549,1.72039 -0.2114742,0.67608 -0.3328627,1.46113 -0.3406902,2.24265 -0.00783,0.78152 0.1117038,1.58859 0.557493,2.3041 0.4457892,0.7155 1.3223007,1.22884 2.3228871,1.22884 3.2926511,0 6.6845291,1.0404 8.3314231,3.07212 l 0.03097,0.0306 c 0.193387,0.24258 0.694362,1.59129 1.02207,3.37934 0.327708,1.78803 0.595896,4.06626 0.805268,6.51289 0.417841,4.88271 0.605781,10.43161 0.650408,14.19322 0,0.0107 -4e-6,0.02 0,0.0306 0.0077,18.71425 6.80193,30.76294 14.804536,38.3401 7.64912,7.24247 16.259917,10.38039 21.215705,11.76623 l 0,30.50618 0,1.0138 1.02207,0 6.349226,0 6.411169,0 1.02207,0 0,-1.0138 0,-30.50618 c 4.955375,-1.38591 13.574218,-4.52363 21.215705,-11.76623 7.994625,-7.5773 14.765851,-19.62612 14.773561,-38.3401 0,-0.0107 0,-0.02 0,-0.0306 0.0447,-3.76022 0.2247,-9.31063 0.65041,-14.19322 0.21332,-2.44657 0.50561,-4.72473 0.83624,-6.51289 0.33063,-1.78816 0.82785,-3.13571 1.02207,-3.37934 1.64026,-2.05756 5.02123,-3.10285 8.33142,-3.10285 1.00059,0 1.9048,-0.51539 2.35386,-1.22884 0.44907,-0.71345 0.56064,-1.52238 0.5575,-2.3041 -0.003,-0.78171 -0.16338,-1.56574 -0.37167,-2.24265 -0.20829,-0.67691 -0.41451,-1.24063 -0.89818,-1.72039 -0.56415,-0.55958 -1.31132,-0.89164 -2.199,-1.22885 -0.88768,-0.3372 -1.9026,-0.63938 -2.97329,-0.89091 -2.1414,-0.50307 -4.40226,-0.82943 -5.91562,-0.82947 -10.627618,0 -16.939095,5.79092 -20.472386,13.14869 -3.53329,7.35776 -4.499609,16.28693 -5.048408,23.10235 -0.781413,8.4897 -0.993459,15.03852 -1.362761,19.99952 -0.369302,4.96102 -0.928615,8.31344 -2.229972,10.35306 -1.462882,2.29279 -2.54548,3.66825 -3.871479,4.66963 -1.070195,0.80819 -2.512787,1.3837 -4.398,1.99688 l 0,-66.63435 c 0,-0.98792 -0.225238,-1.945 -0.805267,-2.70347 -0.58003,-0.75846 -1.543574,-1.19812 -2.632606,-1.19812 l -3.995366,0 -3.933423,0 c -1.089032,0 -2.052576,0.43966 -2.632606,1.19812 -0.580029,0.75847 -0.805267,1.71555 -0.805267,2.70347 l 0,66.66507 c -4.237201,-1.34837 -5.657235,-2.55439 -8.300451,-6.69723 -1.301366,-2.03961 -1.860673,-5.39203 -2.229972,-10.35306 -0.369299,-4.96101 -0.581348,-11.50982 -1.362761,-19.99952 -0.548799,-6.81542 -1.515118,-15.74459 -5.048408,-23.10235 -3.533291,-7.35777 -9.844765,-13.14869 -20.472381,-13.14869 z"
     id="path3754"
     style="font-size:2050.27807617px;font-style:normal;font-variant:normal;font-weight:normal;font-stretch:normal;text-indent:0;text-align:start;text-decoration:none;line-height:normal;letter-spacing:normal;word-spacing:normal;text-transform:none;direction:ltr;block-progression:tb;writing-mode:lr-tb;text-anchor:start;opacity:0.5;color:#000000;fill:#000000;fill-opacity:1;fill-rule:nonzero;stroke:none;stroke-width:2.05333328;marker:none;visibility:visible;display:inline;overflow:visible;enable-background:accumulate;font-family:Times New Roman;-inkscape-font-specification:ALPHA-Demo" />
  <path
     d="m 17.934657,-410.74292 c -2.734751,8e-5 -9.0075997,1.27552 -10.4270838,2.695 -0.9620746,0.96207 -1.9675081,5.87125 0.8983333,5.87125 3.5432845,0 7.2818605,1.05281 9.2400005,3.52917 1.95814,2.47636 2.637584,17.45492 2.727083,25.15333 0,37.62174 26.83396,47.69257 36.350418,50.2425 l 0,31.79459 6.416667,0 6.44875,0 0,-31.79459 c 9.516458,-2.54993 36.318335,-12.62076 36.318335,-50.2425 0.0895,-7.69841 0.80103,-22.67697 2.75917,-25.15333 1.95814,-2.47636 5.66462,-3.52917 9.20791,-3.52917 2.86584,0 1.89249,-4.90918 0.93042,-5.87125 -1.41949,-1.41948 -7.72441,-2.69492 -10.45917,-2.695 -20.715118,0 -23.633305,22.12437 -24.736248,35.93333 -1.57099,17.20732 -0.78924,26.57845 -3.785833,31.31334 -1.498058,2.36707 -2.660072,3.88778 -4.14558,5.01877 -1.485973,1.13133 -3.295616,1.87271 -6.089004,2.68123 l 0,-69.23584 c 0,-1.71508 -0.738671,-2.95166 -2.438333,-2.95166 l -4.010417,0 -3.978333,0 c -1.699663,0 -2.438334,1.23658 -2.438334,2.95166 l 0,69.23584 c -5.5859,-1.61678 -7.270137,-2.96509 -10.266667,-7.7 -2.99662,-4.73487 -2.214843,-14.10602 -3.785833,-31.31334 -1.102943,-13.80896 -4.021126,-35.93333 -24.736251,-35.93333 z"
     id="path3627"
     style="font-size:2050.27807617px;font-style:normal;font-weight:normal;fill:#112dd1;fill-opacity:1;stroke:none;font-family:Times New Roman" />
  <path
     d="m 17.934657,-409.71625 c -1.207792,3e-5 -3.432045,0.32132 -5.454167,0.80208 -1.01106,0.24038 -1.990995,0.50682 -2.7591668,0.80208 -0.7681703,0.29526 -1.3339469,0.6602 -1.4758333,0.80209 0.00496,-0.005 -0.2609122,0.39499 -0.4170834,0.89833 -0.1561712,0.50335 -0.28326,1.11575 -0.28875,1.66833 -0.00549,0.55259 0.1190254,1.02853 0.2566667,1.25125 0.1376413,0.22275 0.1862359,0.28875 0.6095833,0.28875 3.7466515,0 7.7774105,1.05015 10.0420835,3.91417 0.783947,0.99142 1.093481,2.43661 1.44375,4.36333 0.350269,1.92673 0.619604,4.27392 0.834167,6.80167 0.429127,5.05549 0.62874,10.75834 0.67375,14.63 0,18.56678 6.560072,30.17114 14.277084,37.5375 7.717012,7.36636 16.638463,10.46047 21.303334,11.71042 l 0.77,0.1925 0,0.80208 0,30.76792 5.39,0 5.422083,0 0,-30.76792 0,-0.80208 0.770001,-0.1925 c 4.66459,-1.24987 13.562217,-4.3442 21.27125,-11.71042 7.709033,-7.36622 14.277081,-18.97043 14.277081,-37.5375 0.045,-3.87308 0.23654,-9.57438 0.67375,-14.63 0.21861,-2.52781 0.51292,-4.87507 0.86625,-6.80167 0.35334,-1.92659 0.66065,-3.37298 1.44375,-4.36333 2.2613,-2.85974 6.26335,-3.91417 10.01,-3.91417 0.42335,0 0.46924,-0.0639 0.60959,-0.28875 0.14035,-0.2248 0.25867,-0.69886 0.25666,-1.25125 -0.002,-0.55238 -0.10328,-1.16584 -0.25666,-1.66833 -0.15338,-0.50249 -0.42409,-0.90533 -0.41709,-0.89833 -0.14052,-0.14052 -0.70461,-0.50672 -1.47583,-0.80209 -0.77122,-0.29536 -1.74397,-0.56164 -2.75917,-0.80208 -2.03039,-0.48088 -4.27846,-0.80205 -5.48625,-0.80208 -9.992053,0 -15.452245,5.16165 -18.800831,12.19166 -3.348584,7.03002 -4.359536,15.93503 -4.90875,22.81125 -0.782559,8.57151 -0.969098,15.18404 -1.3475,20.30876 -0.378402,5.12471 -0.915202,8.79359 -2.59875,11.45375 -1.520094,2.40188 -2.762304,4.05039 -4.395417,5.29375 -1.633614,1.24374 -3.576024,2.03322 -6.416667,2.85541 l -1.315417,0.385 0,-1.37958 0,-69.23584 c 0,-0.71014 -0.175988,-1.23237 -0.385,-1.50791 -0.209012,-0.27555 -0.425819,-0.41709 -1.026666,-0.41709 l -4.010417,0 -3.978333,0 c -0.600849,0 -0.817654,0.14154 -1.026667,0.41709 -0.209013,0.27554 -0.385,0.79777 -0.385,1.50791 l 0,69.23584 0,1.37958 -1.315417,-0.385 c -5.679388,-1.64384 -7.801773,-3.34178 -10.844167,-8.14916 -1.683566,-2.66016 -2.220351,-6.32904 -2.59875,-11.45375 -0.378398,-5.12472 -0.564941,-11.73725 -1.3475,-20.30876 -0.549214,-6.87622 -1.560166,-15.78123 -4.90875,-22.81125 -3.348585,-7.03001 -8.808775,-12.19166 -18.800834,-12.19166 z"
     id="path3629"
     style="font-size:2050.27807617px;font-style:normal;font-weight:normal;fill:url(#linearGradient3806);fill-opacity:1;stroke:none;font-family:Times New Roman" />
  <path
     d="M 18.125,6.4375 C 16.948579,6.4375292 14.782099,6.7504773 12.8125,7.21875 11.827701,7.4528864 10.873219,7.7124091 10.125,8 9.3767822,8.2875909 8.8257011,8.6430455 8.6875,8.78125 L 9.40625,9.5 9.1875,9.65625 9.03125,9.71875 C 9.03125,9.71875 8.7665497,9.4115537 8.5,9.125 8.4249761,9.2747132 8.3461611,9.4470416 8.28125,9.65625 8.1291352,10.146526 8.0053474,10.743023 8,11.28125 7.99465,11.819487 8.1159338,12.283065 8.25,12.5 c 0.1340662,0.216964 0.1813986,0.28125 0.59375,0.28125 3.649336,0 7.5754,1.02287 9.78125,3.8125 0.763585,0.965669 1.065079,2.373325 1.40625,4.25 0.341171,1.876685 0.60351,4.162906 0.8125,6.625 0.417981,4.924179 0.612409,10.478903 0.65625,14.25 0,18.084527 6.38968,29.387474 13.90625,36.5625 7.51657,7.175026 16.206295,10.188766 20.75,11.40625 l 0.75,0.1875 0,0.78125 0,29.96875 5.25,0 5.28125,0 0,-29.96875 0,-0.78125 0.75,-0.1875 c 4.543432,-1.217406 13.209952,-4.23136 20.71875,-11.40625 7.508798,-7.17489 13.90625,-18.477691 13.90625,-36.5625 0.0439,-3.772481 0.23039,-9.325695 0.65625,-14.25 0.21293,-2.462153 0.49959,-4.748442 0.84375,-6.625 0.34416,-1.876549 0.64349,-3.285373 1.40625,-4.25 2.20256,-2.785461 6.10066,-3.8125 9.75,-3.8125 0.41235,0 0.45705,-0.06228 0.59375,-0.28125 0.13671,-0.218961 0.25195,-0.680708 0.25,-1.21875 -0.002,-0.538032 -0.1006,-1.135562 -0.25,-1.625 C 115.89,9.683912 115.4375,9.75 115.4375,9.75 l -0.5,-0.25 0.71875,-0.71875 C 115.51938,8.6443799 114.96994,8.2876981 114.21875,8 113.46756,7.7123117 112.52008,7.4529448 111.53125,7.21875 109.55359,6.7503604 107.36392,6.4375292 106.1875,6.4375 c -9.732522,0 -15.050891,5.027588 -18.3125,11.875 -3.261608,6.847422 -4.246301,15.521133 -4.78125,22.21875 -0.762233,8.348864 -0.943927,14.78964 -1.3125,19.78125 -0.368573,4.991601 -0.89143,8.565185 -2.53125,11.15625 -1.480611,2.339494 -2.690556,3.945185 -4.28125,5.15625 -1.591182,1.211435 -3.48314,1.980416 -6.25,2.78125 l -1.28125,0.375 0,-1.34375 0,-67.4375 c 0,-0.691695 -0.171417,-1.2003669 -0.375,-1.46875 -0.203584,-0.2683929 -0.414759,-0.40625 -1,-0.40625 l -3.90625,0 -3.875,0 c -0.585242,0 -0.796416,0.1378571 -1,0.40625 -0.203584,0.2683831 -0.375,0.777055 -0.375,1.46875 l 0,67.4375 0,1.34375 -1.28125,-0.375 C 50.093129,77.805107 48.025871,76.151263 45.0625,71.46875 43.422663,68.877685 42.89982,65.304101 42.53125,60.3125 42.162681,55.32089 41.980983,48.880114 41.21875,40.53125 40.683801,33.833633 39.699108,25.159922 36.4375,18.3125 33.175892,11.465088 27.857525,6.4375 18.125,6.4375 z m 0,1 c 9.388142,0 14.244411,4.674542 17.40625,11.3125 3.154221,6.621974 4.15485,15.206166 4.6875,21.875 0.759308,8.316828 0.941056,14.719458 1.3125,19.75 0.371103,5.025906 0.876834,8.764013 2.6875,11.625 3.018855,4.770185 5.480387,6.741218 11.125,8.375 l 1.28125,0.375 1.28125,0.375 0,-1.34375 0,-1.34375 0,-67.4375 c 0,-0.526481 0.15701,-0.876003 0.15625,-0.875 -0.03237,0.01451 0.0047,0 0.21875,0 l 3.875,0 3.90625,0 c 0.214102,0 0.251112,0.01451 0.21875,0 -7.57e-4,-9.74e-4 0.15625,0.348519 0.15625,0.875 l 0,67.4375 0,1.34375 0,1.34375 L 67.71875,80.75 69,80.375 c 2.814136,-0.814519 4.829619,-1.649432 6.5625,-2.96875 1.735191,-1.321081 3.029558,-3.033445 4.53125,-5.40625 1.810645,-2.860987 2.316394,-6.599084 2.6875,-11.625 0.371448,-5.030542 0.553193,-11.433172 1.3125,-19.75 0.53265,-6.668834 1.533279,-15.253026 4.6875,-21.875 3.16184,-6.637958 8.018112,-11.3125 17.40625,-11.3125 0.99917,2.92e-5 3.21124,0.2967468 5.125,0.75 0.96711,0.2290519 1.88611,0.4909675 2.5625,0.75 0.32274,0.1236136 0.57696,0.258 0.78125,0.375 0.16239,0.09302 0.21645,0.1614221 0.21875,0.15625 0.009,0.015682 0.0217,0.013231 0.0312,0.03125 0.0633,0.1198539 0.13898,0.278539 0.1875,0.4375 0.11887,0.389416 0.21708,0.924773 0.21875,1.34375 9.7e-4,0.303068 -0.0473,0.45475 -0.0625,0.53125 -3.77761,0.03935 -7.87505,1.07375 -10.3125,4.15625 -0.97763,1.23637 -1.24706,2.79711 -1.59375,4.6875 -0.35238,1.921403 -0.66,4.232782 -0.875,6.71875 -0.42925,4.963627 -0.61213,10.549724 -0.65625,14.34375 0,17.848977 -6.259095,28.835253 -13.59375,35.84375 l -0.03125,0 c -7.327852,6.993302 -15.801797,9.964354 -20.25,11.15625 l -0.75,0.1875 -0.75,0.1875 0,0.78125 0,0.78125 0,28.96875 -4.28125,0 -4.25,0 0,-28.96875 0,-0.78125 0,-0.78125 -0.75,-0.1875 -0.75,-0.1875 C 51.953165,87.525549 43.43304,84.568299 36.09375,77.5625 28.751858,70.554208 22.5,59.567727 22.5,41.71875 22.455896,37.924705 22.264881,32.336289 21.84375,27.375 21.633207,24.894614 21.350599,22.584802 21,20.65625 20.656025,18.764156 20.383661,17.204838 19.40625,15.96875 16.963192,12.87914 12.840348,11.851578 9.0625,11.8125 9.0451536,11.732825 8.9970731,11.575951 9,11.28125 9.0038961,10.88899 9.1204105,10.355172 9.25,9.9375 9.3006776,9.7741656 9.3742448,9.6202532 9.4375,9.5 c -0.00295,0.00292 0.00167,-0.033198 0,-0.03125 -0.028294,0.033019 0.071413,-0.054153 0.25,-0.15625 0.2048496,-0.1170877 0.459183,-0.2512013 0.78125,-0.375 0.670431,-0.2576883 1.598019,-0.5206948 2.5625,-0.75 1.906598,-0.4532922 4.094643,-0.7499708 5.09375,-0.75 z"
     transform="matrix(1.0266667,0,0,1.0266667,-0.6736771,-416.32542)"
     id="path3695"
     style="font-size:2050.27807617px;font-style:normal;font-weight:normal;fill:#50caf1;fill-opacity:1;stroke:none;filter:url(#filter3716);font-family:Times New Roman" />
  <path
     d="m 108.34534,-409.71625 c 1.20779,3e-5 3.43204,0.32132 5.45417,0.80208 1.01106,0.24038 1.99099,0.50682 2.75916,0.80208 0.76817,0.29526 1.33395,0.6602 1.47584,0.80209 -0.005,-0.005 0.26091,0.39499 0.41708,0.89833 0.15617,0.50335 0.28326,1.11575 0.28875,1.66833 0.005,0.55259 -0.11903,1.02853 -0.25667,1.25125 -0.13764,0.22275 -0.18623,0.28875 -0.60958,0.28875 -3.74665,0 -7.77741,1.05015 -10.04208,3.91417 -0.78395,0.99142 -1.09348,2.43661 -1.44375,4.36333 l -16.843754,-2.59875 c 3.348585,-7.03001 8.808775,-12.19166 18.800834,-12.19166 z"
     id="path3750"
     style="font-size:2050.27807617px;font-style:normal;font-weight:normal;fill:url(#radialGradient3798);fill-opacity:1;stroke:none;font-family:Times New Roman" />
  <path
     d="m 17.934657,-409.71625 c -1.207792,3e-5 -3.432045,0.32132 -5.454167,0.80208 -1.01106,0.24038 -1.990995,0.50682 -2.7591668,0.80208 -0.7681703,0.29526 -1.3339469,0.6602 -1.4758333,0.80209 0.00496,-0.005 -0.2609122,0.39499 -0.4170834,0.89833 -0.1561712,0.50335 -0.28326,1.11575 -0.28875,1.66833 -0.00549,0.55259 0.1190254,1.02853 0.2566667,1.25125 0.1376413,0.22275 0.1862359,0.28875 0.6095833,0.28875 3.7466515,0 7.7774105,1.05015 10.0420835,3.91417 0.783947,0.99142 1.093481,2.43661 1.44375,4.36333 l 16.843751,-2.59875 c -3.348585,-7.03001 -8.808775,-12.19166 -18.800834,-12.19166 z"
     id="path3728"
     style="font-size:2050.27807617px;font-style:normal;font-weight:normal;fill:url(#radialGradient3801);fill-opacity:1;stroke:none;font-family:Times New Roman" />
  <path
     d="m 58.28125,9.125 c -0.585242,0 -0.796416,0.1378571 -1,0.40625 -0.203584,0.2683831 -0.375,0.777055 -0.375,1.46875 l 0,15.25 10.53125,0 0,-15.25 c 0,-0.691695 -0.171417,-1.2003669 -0.375,-1.46875 -0.203584,-0.2683929 -0.414759,-0.40625 -1,-0.40625 l -3.90625,0 -3.875,0 z"
     transform="matrix(1.0266667,0,0,1.0266667,-0.6736771,-416.32542)"
     id="rect3664"
     style="fill:url(#radialGradient3791);fill-opacity:1;stroke:none" />
</svg>
