<svg xmlns="http://www.w3.org/2000/svg" width="400" height="400" viewBox="0 0 400 400" version="1.1"><path d="M 75.092 90.250 C 76.227 93.138, 85.723 116.650, 96.194 142.500 C 106.665 168.350, 126.899 218.300, 141.159 253.500 C 155.418 288.700, 174.603 336.059, 183.793 358.743 L 200.500 399.986 215.750 399.993 C 224.137 399.997, 230.995 399.663, 230.989 399.250 C 230.984 398.837, 208.299 342.700, 180.579 274.500 C 152.859 206.300, 130.330 150.346, 130.515 150.158 C 130.699 149.970, 135.722 153.821, 141.675 158.715 C 147.629 163.609, 170.275 182.012, 192 199.611 C 213.725 217.210, 250.850 247.275, 274.500 266.422 C 298.150 285.570, 318.481 302.196, 319.680 303.368 L 321.859 305.500 316.486 349 C 313.531 372.925, 310.857 394.188, 310.545 396.250 L 309.976 400 322.988 400 C 331.577 400, 336 399.636, 336 398.928 C 336 398.339, 338.293 379.551, 341.095 357.178 C 343.898 334.805, 346.260 316.467, 346.345 316.427 C 346.430 316.387, 356.400 314.653, 368.500 312.572 C 380.600 310.492, 392.637 308.350, 395.250 307.812 L 400 306.834 400 291.917 C 400 280.627, 399.696 277.011, 398.750 277.043 C 398.063 277.067, 391.650 278.148, 384.500 279.444 C 377.350 280.741, 371.369 281.678, 371.209 281.527 C 371.050 281.376, 377.462 275.940, 385.459 269.447 L 400 257.642 400 238.334 L 400 219.026 385.250 230.797 C 377.137 237.272, 361.785 249.493, 351.133 257.955 C 336.877 269.281, 331.397 273.099, 330.369 272.421 C 329.601 271.914, 288.324 239.325, 238.643 200 C 188.962 160.675, 148.658 128.362, 149.078 128.193 C 149.498 128.024, 180.590 133.294, 218.171 139.904 C 255.752 146.514, 311.025 156.212, 341 161.456 C 370.975 166.700, 396.512 171.226, 397.750 171.514 L 400 172.038 399.995 157.769 L 399.990 143.500 350.745 134.660 C 323.660 129.797, 290.700 123.861, 277.500 121.468 C 264.300 119.074, 230.775 113.018, 203 108.010 C 175.225 103.001, 135.192 95.775, 114.037 91.952 C 92.883 88.128, 75.002 85, 74.302 85 C 73.372 85, 73.585 86.414, 75.092 90.250" stroke="none" fill="#f8fafb" fill-rule="evenodd"/><path d="M 0 200 L 0 400 100.117 400 C 194.991 400, 200.207 399.908, 199.730 398.250 C 199.453 397.288, 191.810 378.275, 182.745 356 C 173.680 333.725, 152.503 281.525, 135.684 240 C 118.865 198.475, 97.905 146.725, 89.107 125 C 80.309 103.275, 73.507 85.360, 73.990 85.188 C 74.474 85.017, 92.562 88.073, 114.185 91.980 C 135.808 95.887, 176 103.141, 203.500 108.100 C 231 113.059, 264.300 119.074, 277.500 121.468 C 290.700 123.861, 323.660 129.797, 350.745 134.660 L 399.990 143.500 399.995 157.769 L 400 172.038 397.750 171.514 C 396.512 171.226, 370.975 166.700, 341 161.456 C 311.025 156.212, 255.752 146.514, 218.171 139.904 C 180.590 133.294, 149.498 128.024, 149.078 128.193 C 148.658 128.362, 188.962 160.675, 238.643 200 C 288.324 239.325, 329.601 271.914, 330.369 272.421 C 331.397 273.099, 336.877 269.281, 351.133 257.955 C 361.785 249.493, 377.138 237.272, 385.250 230.797 L 400 219.026 400 238.334 L 400 257.642 385.459 269.447 C 377.462 275.940, 371.050 281.376, 371.209 281.527 C 371.369 281.678, 377.350 280.741, 384.500 279.444 C 391.650 278.148, 398.063 277.067, 398.750 277.043 C 399.696 277.011, 400 280.627, 400 291.917 L 400 306.834 395.250 307.812 C 392.637 308.350, 380.600 310.492, 368.500 312.572 C 356.400 314.653, 346.430 316.387, 346.345 316.427 C 346.260 316.467, 343.898 334.805, 341.095 357.178 C 338.293 379.551, 336 398.345, 336 398.942 C 336 399.706, 345.558 399.950, 368.250 399.764 L 400.500 399.500 400.752 199.750 L 401.005 0 200.502 0 L 0 0 0 200 M 0.490 200.500 C 0.490 310.500, 0.607 355.352, 0.750 300.170 C 0.893 244.989, 0.893 154.989, 0.750 100.170 C 0.607 45.352, 0.490 90.500, 0.490 200.500 M 131.767 154.362 C 132.720 156.761, 155.550 213.007, 182.500 279.354 L 231.500 399.984 270.705 399.992 L 309.909 400 310.468 396.750 C 310.776 394.962, 313.465 373.700, 316.443 349.500 L 321.859 305.500 319.680 303.368 C 318.481 302.196, 298.150 285.570, 274.500 266.422 C 250.850 247.275, 213.725 217.210, 192 199.611 C 170.275 182.012, 147.679 163.650, 141.786 158.807 C 135.893 153.963, 130.838 150, 130.553 150 C 130.267 150, 130.813 151.963, 131.767 154.362" stroke="none" fill="#145ccb" fill-rule="evenodd"/></svg>